<mxfile host="65bd71144e">
    <diagram id="Q7zxpUBoKzy7neIAce_l" name="第 1 页">
        <mxGraphModel dx="923" dy="685" grid="1" gridSize="10" guides="1" tooltips="1" connect="1" arrows="1" fold="1" page="1" pageScale="1" pageWidth="827" pageHeight="1169" background="none" math="0" shadow="0">
            <root>
                <mxCell id="0"/>
                <mxCell id="1" parent="0"/>
                <mxCell id="6" style="edgeStyle=none;html=1;exitX=0.5;exitY=1;exitDx=0;exitDy=0;fontSize=20;entryX=0.5;entryY=0;entryDx=0;entryDy=0;" parent="1" source="43" target="8" edge="1">
                    <mxGeometry relative="1" as="geometry">
                        <mxPoint x="300" y="350" as="targetPoint"/>
                        <mxPoint x="300" y="280" as="sourcePoint"/>
                    </mxGeometry>
                </mxCell>
                <mxCell id="5" value="" style="html=1;verticalAlign=bottom;labelBackgroundColor=none;endArrow=block;endFill=1;fontSize=20;entryX=0.5;entryY=0;entryDx=0;entryDy=0;exitX=0.5;exitY=1;exitDx=0;exitDy=0;" parent="1" edge="1">
                    <mxGeometry width="160" relative="1" as="geometry">
                        <mxPoint x="299.5" y="200" as="sourcePoint"/>
                        <mxPoint x="299.5" y="240" as="targetPoint"/>
                    </mxGeometry>
                </mxCell>
                <mxCell id="10" style="edgeStyle=none;html=1;entryX=0;entryY=0.5;entryDx=0;entryDy=0;fontSize=20;" parent="1" source="8" target="9" edge="1">
                    <mxGeometry relative="1" as="geometry"/>
                </mxCell>
                <mxCell id="13" style="edgeStyle=none;html=1;entryX=0.5;entryY=0;entryDx=0;entryDy=0;fontSize=20;" parent="1" source="8" target="12" edge="1">
                    <mxGeometry relative="1" as="geometry"/>
                </mxCell>
                <mxCell id="8" value="(sym)='(' ?" style="rhombus;whiteSpace=wrap;html=1;rounded=0;fontSize=20;" parent="1" vertex="1">
                    <mxGeometry x="220" y="330" width="160" height="80" as="geometry"/>
                </mxCell>
                <mxCell id="46" style="edgeStyle=none;html=1;entryX=0.5;entryY=0;entryDx=0;entryDy=0;fontSize=20;" parent="1" source="9" target="45" edge="1">
                    <mxGeometry relative="1" as="geometry"/>
                </mxCell>
                <mxCell id="62" style="edgeStyle=none;html=1;entryX=0;entryY=0.5;entryDx=0;entryDy=0;fontSize=20;" parent="1" source="9" target="61" edge="1">
                    <mxGeometry relative="1" as="geometry"/>
                </mxCell>
                <mxCell id="9" value="(sym)='d' ?" style="rhombus;whiteSpace=wrap;html=1;rounded=0;fontSize=20;" parent="1" vertex="1">
                    <mxGeometry x="490" y="330" width="140" height="80" as="geometry"/>
                </mxCell>
                <mxCell id="11" value="F" style="text;html=1;align=center;verticalAlign=middle;resizable=0;points=[];autosize=1;strokeColor=none;fillColor=none;fontSize=20;" parent="1" vertex="1">
                    <mxGeometry x="415" y="345" width="30" height="30" as="geometry"/>
                </mxCell>
                <mxCell id="14" style="edgeStyle=none;html=1;exitX=1;exitY=0.25;exitDx=0;exitDy=0;fontSize=20;" parent="1" source="12" edge="1">
                    <mxGeometry relative="1" as="geometry">
                        <mxPoint x="410" y="475" as="targetPoint"/>
                    </mxGeometry>
                </mxCell>
                <mxCell id="18" style="edgeStyle=none;html=1;exitX=0.5;exitY=1;exitDx=0;exitDy=0;entryX=0.5;entryY=0;entryDx=0;entryDy=0;fontSize=20;" parent="1" source="12" target="21" edge="1">
                    <mxGeometry relative="1" as="geometry">
                        <mxPoint x="300" y="570" as="targetPoint"/>
                    </mxGeometry>
                </mxCell>
                <mxCell id="12" value="读符号" style="whiteSpace=wrap;html=1;rounded=0;fontSize=20;" parent="1" vertex="1">
                    <mxGeometry x="240" y="460" width="120" height="60" as="geometry"/>
                </mxCell>
                <mxCell id="16" value="" style="endArrow=classic;html=1;fontSize=20;entryX=1;entryY=0.75;entryDx=0;entryDy=0;" parent="1" target="12" edge="1">
                    <mxGeometry width="50" height="50" relative="1" as="geometry">
                        <mxPoint x="410" y="505" as="sourcePoint"/>
                        <mxPoint x="470" y="490" as="targetPoint"/>
                    </mxGeometry>
                </mxCell>
                <mxCell id="19" value="T" style="text;html=1;align=center;verticalAlign=middle;resizable=0;points=[];autosize=1;strokeColor=none;fillColor=none;fontSize=20;" parent="1" vertex="1">
                    <mxGeometry x="310" y="410" width="30" height="30" as="geometry"/>
                </mxCell>
                <mxCell id="20" style="edgeStyle=none;html=1;exitX=1;exitY=0.25;exitDx=0;exitDy=0;fontSize=20;" parent="1" source="21" edge="1">
                    <mxGeometry relative="1" as="geometry">
                        <mxPoint x="410" y="585" as="targetPoint"/>
                    </mxGeometry>
                </mxCell>
                <mxCell id="25" style="edgeStyle=none;html=1;exitX=0.5;exitY=1;exitDx=0;exitDy=0;entryX=0.5;entryY=0;entryDx=0;entryDy=0;fontSize=20;" parent="1" source="21" target="24" edge="1">
                    <mxGeometry relative="1" as="geometry"/>
                </mxCell>
                <mxCell id="21" value="B" style="whiteSpace=wrap;html=1;rounded=0;fontSize=20;" parent="1" vertex="1">
                    <mxGeometry x="240" y="570" width="120" height="60" as="geometry"/>
                </mxCell>
                <mxCell id="22" value="" style="endArrow=classic;html=1;fontSize=20;entryX=1;entryY=0.75;entryDx=0;entryDy=0;" parent="1" target="21" edge="1">
                    <mxGeometry width="50" height="50" relative="1" as="geometry">
                        <mxPoint x="410" y="615" as="sourcePoint"/>
                        <mxPoint x="470" y="600" as="targetPoint"/>
                    </mxGeometry>
                </mxCell>
                <mxCell id="26" style="edgeStyle=none;html=1;fontSize=20;entryX=1;entryY=0.5;entryDx=0;entryDy=0;" parent="1" source="24" target="28" edge="1">
                    <mxGeometry relative="1" as="geometry">
                        <mxPoint x="150" y="730" as="targetPoint"/>
                    </mxGeometry>
                </mxCell>
                <mxCell id="30" style="edgeStyle=none;html=1;entryX=0.5;entryY=0;entryDx=0;entryDy=0;fontSize=20;" parent="1" source="24" target="29" edge="1">
                    <mxGeometry relative="1" as="geometry"/>
                </mxCell>
                <mxCell id="24" value="(sym)=')' ?" style="rhombus;whiteSpace=wrap;html=1;rounded=0;fontSize=20;" parent="1" vertex="1">
                    <mxGeometry x="220" y="690" width="160" height="80" as="geometry"/>
                </mxCell>
                <mxCell id="27" value="F" style="text;html=1;align=center;verticalAlign=middle;resizable=0;points=[];autosize=1;strokeColor=none;fillColor=none;fontSize=20;" parent="1" vertex="1">
                    <mxGeometry x="190" y="700" width="30" height="30" as="geometry"/>
                </mxCell>
                <mxCell id="28" value="error" style="whiteSpace=wrap;html=1;rounded=0;fontSize=20;" parent="1" vertex="1">
                    <mxGeometry x="120" y="710" width="60" height="40" as="geometry"/>
                </mxCell>
                <mxCell id="32" style="edgeStyle=none;html=1;exitX=1;exitY=0.25;exitDx=0;exitDy=0;fontSize=20;" parent="1" source="29" edge="1">
                    <mxGeometry relative="1" as="geometry">
                        <mxPoint x="390" y="835" as="targetPoint"/>
                    </mxGeometry>
                </mxCell>
                <mxCell id="39" style="edgeStyle=none;html=1;fontSize=20;" parent="1" source="29" target="37" edge="1">
                    <mxGeometry relative="1" as="geometry"/>
                </mxCell>
                <mxCell id="29" value="读符号" style="whiteSpace=wrap;html=1;rounded=0;fontSize=20;" parent="1" vertex="1">
                    <mxGeometry x="250" y="820" width="100" height="60" as="geometry"/>
                </mxCell>
                <mxCell id="31" value="T" style="text;html=1;align=center;verticalAlign=middle;resizable=0;points=[];autosize=1;strokeColor=none;fillColor=none;fontSize=20;" parent="1" vertex="1">
                    <mxGeometry x="255" y="780" width="30" height="30" as="geometry"/>
                </mxCell>
                <mxCell id="33" style="edgeStyle=none;html=1;exitX=1;exitY=0.75;exitDx=0;exitDy=0;fontSize=20;" parent="1" source="29" edge="1">
                    <mxGeometry relative="1" as="geometry">
                        <mxPoint x="350" y="865" as="targetPoint"/>
                    </mxGeometry>
                </mxCell>
                <mxCell id="34" value="" style="endArrow=classic;html=1;fontSize=20;entryX=1;entryY=0.75;entryDx=0;entryDy=0;" parent="1" target="29" edge="1">
                    <mxGeometry width="50" height="50" relative="1" as="geometry">
                        <mxPoint x="390" y="865" as="sourcePoint"/>
                        <mxPoint x="440" y="800" as="targetPoint"/>
                    </mxGeometry>
                </mxCell>
                <mxCell id="37" value="" style="ellipse;html=1;shape=endState;fillColor=#000000;strokeColor=#000000;rounded=0;fontSize=20;direction=south;" parent="1" vertex="1">
                    <mxGeometry x="285" y="920" width="30" height="30" as="geometry"/>
                </mxCell>
                <mxCell id="40" value="出口" style="text;html=1;align=center;verticalAlign=middle;resizable=0;points=[];autosize=1;strokeColor=none;fillColor=none;fontSize=20;" parent="1" vertex="1">
                    <mxGeometry x="270" y="950" width="60" height="30" as="geometry"/>
                </mxCell>
                <mxCell id="43" value="" style="ellipse;fillColor=#000000;strokeColor=none;rounded=0;fontSize=20;" parent="1" vertex="1">
                    <mxGeometry x="285" y="240" width="30" height="30" as="geometry"/>
                </mxCell>
                <mxCell id="44" value="入口" style="text;html=1;align=center;verticalAlign=middle;resizable=0;points=[];autosize=1;strokeColor=none;fillColor=none;fontSize=20;" parent="1" vertex="1">
                    <mxGeometry x="305" y="220" width="60" height="30" as="geometry"/>
                </mxCell>
                <mxCell id="47" style="edgeStyle=none;html=1;exitX=1;exitY=0.25;exitDx=0;exitDy=0;fontSize=20;" parent="1" source="45" edge="1">
                    <mxGeometry relative="1" as="geometry">
                        <mxPoint x="670" y="475" as="targetPoint"/>
                    </mxGeometry>
                </mxCell>
                <mxCell id="53" style="edgeStyle=none;html=1;entryX=0.5;entryY=0;entryDx=0;entryDy=0;fontSize=20;" parent="1" source="45" target="51" edge="1">
                    <mxGeometry relative="1" as="geometry"/>
                </mxCell>
                <mxCell id="45" value="读符号" style="whiteSpace=wrap;html=1;rounded=0;fontSize=20;" parent="1" vertex="1">
                    <mxGeometry x="500" y="460" width="120" height="60" as="geometry"/>
                </mxCell>
                <mxCell id="48" value="" style="endArrow=classic;html=1;fontSize=20;entryX=1;entryY=0.75;entryDx=0;entryDy=0;" parent="1" target="45" edge="1">
                    <mxGeometry width="50" height="50" relative="1" as="geometry">
                        <mxPoint x="670" y="505" as="sourcePoint"/>
                        <mxPoint x="440" y="400" as="targetPoint"/>
                    </mxGeometry>
                </mxCell>
                <mxCell id="49" value="T" style="text;html=1;align=center;verticalAlign=middle;resizable=0;points=[];autosize=1;strokeColor=none;fillColor=none;fontSize=20;" parent="1" vertex="1">
                    <mxGeometry x="565" y="410" width="30" height="30" as="geometry"/>
                </mxCell>
                <mxCell id="50" style="edgeStyle=none;html=1;exitX=1;exitY=0.25;exitDx=0;exitDy=0;fontSize=20;" parent="1" source="51" edge="1">
                    <mxGeometry relative="1" as="geometry">
                        <mxPoint x="670" y="595" as="targetPoint"/>
                    </mxGeometry>
                </mxCell>
                <mxCell id="64" style="edgeStyle=none;html=1;entryX=0.5;entryY=0;entryDx=0;entryDy=0;fontSize=20;" parent="1" source="51" target="59" edge="1">
                    <mxGeometry relative="1" as="geometry"/>
                </mxCell>
                <mxCell id="51" value="B" style="whiteSpace=wrap;html=1;rounded=0;fontSize=20;" parent="1" vertex="1">
                    <mxGeometry x="500" y="580" width="120" height="60" as="geometry"/>
                </mxCell>
                <mxCell id="52" value="" style="endArrow=classic;html=1;fontSize=20;entryX=1;entryY=0.75;entryDx=0;entryDy=0;" parent="1" target="51" edge="1">
                    <mxGeometry width="50" height="50" relative="1" as="geometry">
                        <mxPoint x="670" y="625" as="sourcePoint"/>
                        <mxPoint x="730" y="610" as="targetPoint"/>
                    </mxGeometry>
                </mxCell>
                <mxCell id="58" style="edgeStyle=none;html=1;fontSize=20;entryX=0.5;entryY=1;entryDx=0;entryDy=0;exitX=1;exitY=0.5;exitDx=0;exitDy=0;" parent="1" source="59" target="61" edge="1">
                    <mxGeometry relative="1" as="geometry">
                        <mxPoint x="445" y="740" as="targetPoint"/>
                        <Array as="points">
                            <mxPoint x="760" y="740"/>
                        </Array>
                    </mxGeometry>
                </mxCell>
                <mxCell id="66" style="edgeStyle=none;html=1;fontSize=20;exitX=0;exitY=0.5;exitDx=0;exitDy=0;" parent="1" source="59" edge="1">
                    <mxGeometry relative="1" as="geometry">
                        <mxPoint x="300" y="800" as="targetPoint"/>
                        <Array as="points">
                            <mxPoint x="420" y="740"/>
                        </Array>
                    </mxGeometry>
                </mxCell>
                <mxCell id="59" value="(sym)='e' ?" style="rhombus;whiteSpace=wrap;html=1;rounded=0;fontSize=20;" parent="1" vertex="1">
                    <mxGeometry x="480" y="700" width="160" height="80" as="geometry"/>
                </mxCell>
                <mxCell id="60" value="F" style="text;html=1;align=center;verticalAlign=middle;resizable=0;points=[];autosize=1;strokeColor=none;fillColor=none;fontSize=20;" parent="1" vertex="1">
                    <mxGeometry x="690" y="710" width="30" height="30" as="geometry"/>
                </mxCell>
                <mxCell id="61" value="error" style="whiteSpace=wrap;html=1;rounded=0;fontSize=20;" parent="1" vertex="1">
                    <mxGeometry x="730" y="350" width="60" height="40" as="geometry"/>
                </mxCell>
                <mxCell id="63" value="F" style="text;html=1;align=center;verticalAlign=middle;resizable=0;points=[];autosize=1;strokeColor=none;fillColor=none;fontSize=20;" parent="1" vertex="1">
                    <mxGeometry x="670" y="345" width="30" height="30" as="geometry"/>
                </mxCell>
                <mxCell id="67" value="T" style="text;html=1;align=center;verticalAlign=middle;resizable=0;points=[];autosize=1;strokeColor=none;fillColor=none;fontSize=20;" parent="1" vertex="1">
                    <mxGeometry x="440" y="710" width="30" height="30" as="geometry"/>
                </mxCell>
                <mxCell id="68" value="分析A" style="text;html=1;align=center;verticalAlign=middle;resizable=0;points=[];autosize=1;strokeColor=none;fillColor=none;fontSize=30;" parent="1" vertex="1">
                    <mxGeometry x="120" y="190" width="100" height="40" as="geometry"/>
                </mxCell>
                <mxCell id="70" value="分析B" style="text;html=1;align=center;verticalAlign=middle;resizable=0;points=[];autosize=1;strokeColor=none;fillColor=none;fontSize=30;" parent="1" vertex="1">
                    <mxGeometry x="940" y="120" width="100" height="40" as="geometry"/>
                </mxCell>
                <mxCell id="75" style="edgeStyle=none;html=1;entryX=0.5;entryY=0;entryDx=0;entryDy=0;fontSize=20;" parent="1" source="71" target="74" edge="1">
                    <mxGeometry relative="1" as="geometry"/>
                </mxCell>
                <mxCell id="71" value="" style="ellipse;fillColor=#000000;strokeColor=none;rounded=0;fontSize=30;" parent="1" vertex="1">
                    <mxGeometry x="1100" y="200" width="30" height="30" as="geometry"/>
                </mxCell>
                <mxCell id="72" value="入口" style="text;html=1;align=center;verticalAlign=middle;resizable=0;points=[];autosize=1;strokeColor=none;fillColor=none;fontSize=20;" parent="1" vertex="1">
                    <mxGeometry x="1130" y="190" width="60" height="30" as="geometry"/>
                </mxCell>
                <mxCell id="73" value="" style="html=1;verticalAlign=bottom;labelBackgroundColor=none;endArrow=block;endFill=1;fontSize=20;entryX=0.5;entryY=0;entryDx=0;entryDy=0;" parent="1" target="71" edge="1">
                    <mxGeometry width="160" relative="1" as="geometry">
                        <mxPoint x="1115" y="160" as="sourcePoint"/>
                        <mxPoint x="1130" y="330" as="targetPoint"/>
                    </mxGeometry>
                </mxCell>
                <mxCell id="76" style="edgeStyle=none;html=1;fontSize=20;entryX=0.5;entryY=0;entryDx=0;entryDy=0;" parent="1" source="74" target="80" edge="1">
                    <mxGeometry relative="1" as="geometry">
                        <mxPoint x="1115" y="400" as="targetPoint"/>
                    </mxGeometry>
                </mxCell>
                <mxCell id="83" style="edgeStyle=none;html=1;fontSize=20;entryX=0;entryY=0.5;entryDx=0;entryDy=0;" parent="1" source="74" target="85" edge="1">
                    <mxGeometry relative="1" as="geometry">
                        <mxPoint x="1340" y="300" as="targetPoint"/>
                    </mxGeometry>
                </mxCell>
                <mxCell id="74" value="(sym)='c' ?" style="rhombus;whiteSpace=wrap;html=1;rounded=0;fontSize=20;" parent="1" vertex="1">
                    <mxGeometry x="1035" y="270" width="160" height="60" as="geometry"/>
                </mxCell>
                <mxCell id="77" value="T" style="text;html=1;align=center;verticalAlign=middle;resizable=0;points=[];autosize=1;strokeColor=none;fillColor=none;fontSize=20;" parent="1" vertex="1">
                    <mxGeometry x="1125" y="355" width="30" height="30" as="geometry"/>
                </mxCell>
                <mxCell id="79" style="edgeStyle=none;html=1;exitX=1;exitY=0.25;exitDx=0;exitDy=0;fontSize=20;" parent="1" source="80" edge="1">
                    <mxGeometry relative="1" as="geometry">
                        <mxPoint x="1225" y="435" as="targetPoint"/>
                    </mxGeometry>
                </mxCell>
                <mxCell id="88" style="edgeStyle=none;html=1;entryX=0.5;entryY=0;entryDx=0;entryDy=0;fontSize=20;" parent="1" source="80" target="87" edge="1">
                    <mxGeometry relative="1" as="geometry"/>
                </mxCell>
                <mxCell id="80" value="读符号" style="whiteSpace=wrap;html=1;rounded=0;fontSize=20;" parent="1" vertex="1">
                    <mxGeometry x="1055" y="420" width="120" height="60" as="geometry"/>
                </mxCell>
                <mxCell id="81" value="" style="endArrow=classic;html=1;fontSize=20;entryX=1;entryY=0.75;entryDx=0;entryDy=0;" parent="1" target="80" edge="1">
                    <mxGeometry width="50" height="50" relative="1" as="geometry">
                        <mxPoint x="1225" y="465" as="sourcePoint"/>
                        <mxPoint x="1285" y="450" as="targetPoint"/>
                    </mxGeometry>
                </mxCell>
                <mxCell id="84" value="F" style="text;html=1;align=center;verticalAlign=middle;resizable=0;points=[];autosize=1;strokeColor=none;fillColor=none;fontSize=20;" parent="1" vertex="1">
                    <mxGeometry x="1235" y="270" width="30" height="30" as="geometry"/>
                </mxCell>
                <mxCell id="85" value="error" style="whiteSpace=wrap;html=1;rounded=0;fontSize=20;" parent="1" vertex="1">
                    <mxGeometry x="1340" y="280" width="60" height="40" as="geometry"/>
                </mxCell>
                <mxCell id="89" style="edgeStyle=none;html=1;fontSize=20;entryX=0;entryY=0.5;entryDx=0;entryDy=0;" parent="1" source="87" target="91" edge="1">
                    <mxGeometry relative="1" as="geometry">
                        <mxPoint x="1330" y="570" as="targetPoint"/>
                    </mxGeometry>
                </mxCell>
                <mxCell id="95" style="edgeStyle=none;html=1;fontSize=20;exitX=0.5;exitY=1;exitDx=0;exitDy=0;" parent="1" source="87" edge="1">
                    <mxGeometry relative="1" as="geometry">
                        <mxPoint x="1115" y="380" as="targetPoint"/>
                        <Array as="points">
                            <mxPoint x="1115" y="690"/>
                            <mxPoint x="960" y="690"/>
                            <mxPoint x="960" y="380"/>
                        </Array>
                    </mxGeometry>
                </mxCell>
                <mxCell id="87" value="(sym)='c' ?" style="rhombus;whiteSpace=wrap;html=1;rounded=0;fontSize=20;" parent="1" vertex="1">
                    <mxGeometry x="1045" y="540" width="140" height="60" as="geometry"/>
                </mxCell>
                <mxCell id="90" value="F" style="text;html=1;align=center;verticalAlign=middle;resizable=0;points=[];autosize=1;strokeColor=none;fillColor=none;fontSize=20;" parent="1" vertex="1">
                    <mxGeometry x="1235" y="535" width="30" height="30" as="geometry"/>
                </mxCell>
                <mxCell id="91" value="" style="ellipse;html=1;shape=endState;fillColor=#000000;strokeColor=#000000;rounded=0;fontSize=20;" parent="1" vertex="1">
                    <mxGeometry x="1340" y="550" width="40" height="40" as="geometry"/>
                </mxCell>
                <mxCell id="94" value="出口" style="text;html=1;align=center;verticalAlign=middle;resizable=0;points=[];autosize=1;strokeColor=none;fillColor=none;fontSize=20;" parent="1" vertex="1">
                    <mxGeometry x="1380" y="550" width="60" height="30" as="geometry"/>
                </mxCell>
                <mxCell id="96" value="T" style="text;html=1;align=center;verticalAlign=middle;resizable=0;points=[];autosize=1;strokeColor=none;fillColor=none;fontSize=20;" parent="1" vertex="1">
                    <mxGeometry x="1080" y="610" width="30" height="30" as="geometry"/>
                </mxCell>
            </root>
        </mxGraphModel>
    </diagram>
    <diagram id="p-O-NU_yXh-k6Z28u34J" name="第 2 页">
        <mxGraphModel dx="1538" dy="1142" grid="1" gridSize="10" guides="1" tooltips="1" connect="1" arrows="1" fold="1" page="1" pageScale="1" pageWidth="827" pageHeight="1169" math="0" shadow="0">
            <root>
                <mxCell id="FVfacnCL5ie-cgliIS16-0"/>
                <mxCell id="FVfacnCL5ie-cgliIS16-1" parent="FVfacnCL5ie-cgliIS16-0"/>
                <mxCell id="FVfacnCL5ie-cgliIS16-2" value="分析B" style="text;html=1;align=center;verticalAlign=middle;resizable=0;points=[];autosize=1;strokeColor=none;fillColor=none;fontSize=30;" vertex="1" parent="FVfacnCL5ie-cgliIS16-1">
                    <mxGeometry x="189" y="135" width="100" height="40" as="geometry"/>
                </mxCell>
                <mxCell id="FVfacnCL5ie-cgliIS16-3" style="edgeStyle=none;html=1;entryX=0.5;entryY=0;entryDx=0;entryDy=0;fontSize=20;" edge="1" parent="FVfacnCL5ie-cgliIS16-1" source="FVfacnCL5ie-cgliIS16-4" target="FVfacnCL5ie-cgliIS16-9">
                    <mxGeometry relative="1" as="geometry"/>
                </mxCell>
                <mxCell id="FVfacnCL5ie-cgliIS16-4" value="" style="ellipse;fillColor=#000000;strokeColor=none;fontSize=30;" vertex="1" parent="FVfacnCL5ie-cgliIS16-1">
                    <mxGeometry x="364" y="155" width="30" height="30" as="geometry"/>
                </mxCell>
                <mxCell id="FVfacnCL5ie-cgliIS16-5" value="入口" style="text;html=1;align=center;verticalAlign=middle;resizable=0;points=[];autosize=1;strokeColor=none;fillColor=none;fontSize=20;" vertex="1" parent="FVfacnCL5ie-cgliIS16-1">
                    <mxGeometry x="389" y="155" width="60" height="30" as="geometry"/>
                </mxCell>
                <mxCell id="FVfacnCL5ie-cgliIS16-6" value="" style="endArrow=open;startArrow=none;endFill=0;startFill=0;endSize=8;html=1;verticalAlign=bottom;labelBackgroundColor=none;strokeWidth=1;fontSize=20;entryX=0.5;entryY=0;entryDx=0;entryDy=0;" edge="1" parent="FVfacnCL5ie-cgliIS16-1" target="FVfacnCL5ie-cgliIS16-4">
                    <mxGeometry width="160" relative="1" as="geometry">
                        <mxPoint x="379" y="125" as="sourcePoint"/>
                        <mxPoint x="629" y="415" as="targetPoint"/>
                    </mxGeometry>
                </mxCell>
                <mxCell id="FVfacnCL5ie-cgliIS16-7" style="edgeStyle=none;html=1;entryX=0.5;entryY=0;entryDx=0;entryDy=0;fontSize=20;" edge="1" parent="FVfacnCL5ie-cgliIS16-1" source="FVfacnCL5ie-cgliIS16-9" target="FVfacnCL5ie-cgliIS16-12">
                    <mxGeometry relative="1" as="geometry"/>
                </mxCell>
                <mxCell id="FVfacnCL5ie-cgliIS16-8" style="edgeStyle=none;html=1;fontSize=20;entryX=0;entryY=0.5;entryDx=0;entryDy=0;" edge="1" parent="FVfacnCL5ie-cgliIS16-1" source="FVfacnCL5ie-cgliIS16-9" target="FVfacnCL5ie-cgliIS16-22">
                    <mxGeometry relative="1" as="geometry">
                        <mxPoint x="559" y="255" as="targetPoint"/>
                    </mxGeometry>
                </mxCell>
                <mxCell id="FVfacnCL5ie-cgliIS16-9" value="(sym)='a' ?" style="rhombus;whiteSpace=wrap;html=1;fontSize=20;" vertex="1" parent="FVfacnCL5ie-cgliIS16-1">
                    <mxGeometry x="294" y="215" width="170" height="80" as="geometry"/>
                </mxCell>
                <mxCell id="FVfacnCL5ie-cgliIS16-10" style="edgeStyle=none;html=1;exitX=1;exitY=0.25;exitDx=0;exitDy=0;fontSize=20;" edge="1" parent="FVfacnCL5ie-cgliIS16-1" source="FVfacnCL5ie-cgliIS16-12">
                    <mxGeometry relative="1" as="geometry">
                        <mxPoint x="489" y="360" as="targetPoint"/>
                    </mxGeometry>
                </mxCell>
                <mxCell id="FVfacnCL5ie-cgliIS16-11" style="edgeStyle=none;html=1;fontSize=20;entryX=0.5;entryY=0;entryDx=0;entryDy=0;" edge="1" parent="FVfacnCL5ie-cgliIS16-1" source="FVfacnCL5ie-cgliIS16-12" target="FVfacnCL5ie-cgliIS16-15">
                    <mxGeometry relative="1" as="geometry">
                        <mxPoint x="379" y="465" as="targetPoint"/>
                    </mxGeometry>
                </mxCell>
                <mxCell id="FVfacnCL5ie-cgliIS16-12" value="读符号" style="whiteSpace=wrap;html=1;rounded=0;fontSize=20;" vertex="1" parent="FVfacnCL5ie-cgliIS16-1">
                    <mxGeometry x="319" y="345" width="120" height="60" as="geometry"/>
                </mxCell>
                <mxCell id="FVfacnCL5ie-cgliIS16-13" value="" style="endArrow=classic;html=1;fontSize=20;entryX=1;entryY=0.75;entryDx=0;entryDy=0;" edge="1" parent="FVfacnCL5ie-cgliIS16-1" target="FVfacnCL5ie-cgliIS16-12">
                    <mxGeometry width="50" height="50" relative="1" as="geometry">
                        <mxPoint x="489" y="390" as="sourcePoint"/>
                        <mxPoint x="549" y="375" as="targetPoint"/>
                    </mxGeometry>
                </mxCell>
                <mxCell id="FVfacnCL5ie-cgliIS16-14" style="edgeStyle=none;html=1;fontSize=20;entryX=0.5;entryY=0;entryDx=0;entryDy=0;" edge="1" parent="FVfacnCL5ie-cgliIS16-1" source="FVfacnCL5ie-cgliIS16-15" target="FVfacnCL5ie-cgliIS16-19">
                    <mxGeometry relative="1" as="geometry">
                        <mxPoint x="379" y="555" as="targetPoint"/>
                        <Array as="points">
                            <mxPoint x="379" y="565"/>
                        </Array>
                    </mxGeometry>
                </mxCell>
                <mxCell id="FVfacnCL5ie-cgliIS16-15" value="A" style="whiteSpace=wrap;html=1;fontSize=20;" vertex="1" parent="FVfacnCL5ie-cgliIS16-1">
                    <mxGeometry x="319" y="445" width="120" height="60" as="geometry"/>
                </mxCell>
                <mxCell id="FVfacnCL5ie-cgliIS16-16" value="" style="endArrow=open;startArrow=none;endFill=0;startFill=0;endSize=8;html=1;verticalAlign=bottom;labelBackgroundColor=none;strokeWidth=1;fontSize=20;exitX=1;exitY=0.25;exitDx=0;exitDy=0;" edge="1" parent="FVfacnCL5ie-cgliIS16-1" source="FVfacnCL5ie-cgliIS16-15">
                    <mxGeometry width="160" relative="1" as="geometry">
                        <mxPoint x="469" y="415" as="sourcePoint"/>
                        <mxPoint x="489" y="460" as="targetPoint"/>
                    </mxGeometry>
                </mxCell>
                <mxCell id="FVfacnCL5ie-cgliIS16-17" value="" style="endArrow=open;startArrow=none;endFill=0;startFill=0;endSize=8;html=1;verticalAlign=bottom;labelBackgroundColor=none;strokeWidth=1;fontSize=20;entryX=1;entryY=0.75;entryDx=0;entryDy=0;" edge="1" parent="FVfacnCL5ie-cgliIS16-1" target="FVfacnCL5ie-cgliIS16-15">
                    <mxGeometry width="160" relative="1" as="geometry">
                        <mxPoint x="489" y="490" as="sourcePoint"/>
                        <mxPoint x="579" y="575" as="targetPoint"/>
                    </mxGeometry>
                </mxCell>
                <mxCell id="FVfacnCL5ie-cgliIS16-18" value="T" style="text;html=1;align=center;verticalAlign=middle;resizable=0;points=[];autosize=1;strokeColor=none;fillColor=none;fontSize=20;" vertex="1" parent="FVfacnCL5ie-cgliIS16-1">
                    <mxGeometry x="384" y="300" width="30" height="30" as="geometry"/>
                </mxCell>
                <mxCell id="FVfacnCL5ie-cgliIS16-19" value="" style="ellipse;html=1;shape=endState;fillColor=#000000;strokeColor=#000000;fontSize=20;" vertex="1" parent="FVfacnCL5ie-cgliIS16-1">
                    <mxGeometry x="364" y="545" width="30" height="30" as="geometry"/>
                </mxCell>
                <mxCell id="FVfacnCL5ie-cgliIS16-20" value="出口" style="text;html=1;align=center;verticalAlign=middle;resizable=0;points=[];autosize=1;strokeColor=none;fillColor=none;fontSize=20;" vertex="1" parent="FVfacnCL5ie-cgliIS16-1">
                    <mxGeometry x="349" y="575" width="60" height="30" as="geometry"/>
                </mxCell>
                <mxCell id="FVfacnCL5ie-cgliIS16-21" value="F" style="text;html=1;align=center;verticalAlign=middle;resizable=0;points=[];autosize=1;strokeColor=none;fillColor=none;fontSize=20;" vertex="1" parent="FVfacnCL5ie-cgliIS16-1">
                    <mxGeometry x="499" y="225" width="30" height="30" as="geometry"/>
                </mxCell>
                <mxCell id="FVfacnCL5ie-cgliIS16-22" value="error" style="whiteSpace=wrap;html=1;fontSize=20;" vertex="1" parent="FVfacnCL5ie-cgliIS16-1">
                    <mxGeometry x="559" y="235" width="80" height="40" as="geometry"/>
                </mxCell>
                <mxCell id="FVfacnCL5ie-cgliIS16-23" value="分析A" style="text;html=1;align=center;verticalAlign=middle;resizable=0;points=[];autosize=1;strokeColor=none;fillColor=none;fontSize=30;" vertex="1" parent="FVfacnCL5ie-cgliIS16-1">
                    <mxGeometry x="1040" y="80" width="100" height="40" as="geometry"/>
                </mxCell>
                <mxCell id="FVfacnCL5ie-cgliIS16-35" style="edgeStyle=none;html=1;entryX=0.5;entryY=0;entryDx=0;entryDy=0;" edge="1" parent="FVfacnCL5ie-cgliIS16-1" source="FVfacnCL5ie-cgliIS16-24" target="FVfacnCL5ie-cgliIS16-32">
                    <mxGeometry relative="1" as="geometry"/>
                </mxCell>
                <mxCell id="FVfacnCL5ie-cgliIS16-24" value="" style="ellipse;fillColor=#000000;strokeColor=none;fontSize=30;direction=south;" vertex="1" parent="FVfacnCL5ie-cgliIS16-1">
                    <mxGeometry x="1187.5" y="140" width="30" height="30" as="geometry"/>
                </mxCell>
                <mxCell id="FVfacnCL5ie-cgliIS16-25" value="" style="endArrow=open;startArrow=none;endFill=0;startFill=0;endSize=8;html=1;verticalAlign=bottom;labelBackgroundColor=none;strokeWidth=1;fontSize=30;entryX=0;entryY=0.5;entryDx=0;entryDy=0;" edge="1" parent="FVfacnCL5ie-cgliIS16-1" target="FVfacnCL5ie-cgliIS16-24">
                    <mxGeometry width="160" relative="1" as="geometry">
                        <mxPoint x="1202.5" y="110" as="sourcePoint"/>
                        <mxPoint x="1077.5" y="280" as="targetPoint"/>
                    </mxGeometry>
                </mxCell>
                <mxCell id="FVfacnCL5ie-cgliIS16-26" value="入口" style="text;html=1;align=center;verticalAlign=middle;resizable=0;points=[];autosize=1;strokeColor=none;fillColor=none;fontSize=20;" vertex="1" parent="FVfacnCL5ie-cgliIS16-1">
                    <mxGeometry x="1217.5" y="140" width="60" height="30" as="geometry"/>
                </mxCell>
                <mxCell id="FVfacnCL5ie-cgliIS16-27" style="edgeStyle=none;html=1;exitX=1;exitY=0.25;exitDx=0;exitDy=0;fontSize=20;" edge="1" source="FVfacnCL5ie-cgliIS16-28" parent="FVfacnCL5ie-cgliIS16-1">
                    <mxGeometry relative="1" as="geometry">
                        <mxPoint x="1310" y="345" as="targetPoint"/>
                    </mxGeometry>
                </mxCell>
                <mxCell id="FVfacnCL5ie-cgliIS16-41" style="edgeStyle=none;html=1;entryX=0.5;entryY=0;entryDx=0;entryDy=0;" edge="1" parent="FVfacnCL5ie-cgliIS16-1" source="FVfacnCL5ie-cgliIS16-28" target="FVfacnCL5ie-cgliIS16-38">
                    <mxGeometry relative="1" as="geometry"/>
                </mxCell>
                <mxCell id="FVfacnCL5ie-cgliIS16-28" value="读符号" style="whiteSpace=wrap;html=1;rounded=0;fontSize=20;" vertex="1" parent="FVfacnCL5ie-cgliIS16-1">
                    <mxGeometry x="1140" y="330" width="120" height="60" as="geometry"/>
                </mxCell>
                <mxCell id="FVfacnCL5ie-cgliIS16-29" value="" style="endArrow=classic;html=1;fontSize=20;entryX=1;entryY=0.75;entryDx=0;entryDy=0;" edge="1" target="FVfacnCL5ie-cgliIS16-28" parent="FVfacnCL5ie-cgliIS16-1">
                    <mxGeometry width="50" height="50" relative="1" as="geometry">
                        <mxPoint x="1310" y="375" as="sourcePoint"/>
                        <mxPoint x="1370" y="360" as="targetPoint"/>
                    </mxGeometry>
                </mxCell>
                <mxCell id="FVfacnCL5ie-cgliIS16-30" style="edgeStyle=none;html=1;entryX=0.5;entryY=0;entryDx=0;entryDy=0;fontSize=20;" edge="1" source="FVfacnCL5ie-cgliIS16-32" parent="FVfacnCL5ie-cgliIS16-1" target="FVfacnCL5ie-cgliIS16-28">
                    <mxGeometry relative="1" as="geometry">
                        <mxPoint x="1202.5" y="320" as="targetPoint"/>
                    </mxGeometry>
                </mxCell>
                <mxCell id="FVfacnCL5ie-cgliIS16-31" style="edgeStyle=none;html=1;fontSize=20;entryX=0;entryY=0.5;entryDx=0;entryDy=0;" edge="1" source="FVfacnCL5ie-cgliIS16-32" parent="FVfacnCL5ie-cgliIS16-1" target="FVfacnCL5ie-cgliIS16-48">
                    <mxGeometry relative="1" as="geometry">
                        <mxPoint x="1380" y="235" as="targetPoint"/>
                    </mxGeometry>
                </mxCell>
                <mxCell id="FVfacnCL5ie-cgliIS16-32" value="(sym)='c' ?" style="rhombus;whiteSpace=wrap;html=1;fontSize=20;" vertex="1" parent="FVfacnCL5ie-cgliIS16-1">
                    <mxGeometry x="1115" y="195" width="170" height="80" as="geometry"/>
                </mxCell>
                <mxCell id="FVfacnCL5ie-cgliIS16-33" value="T" style="text;html=1;align=center;verticalAlign=middle;resizable=0;points=[];autosize=1;strokeColor=none;fillColor=none;fontSize=20;" vertex="1" parent="FVfacnCL5ie-cgliIS16-1">
                    <mxGeometry x="1207.5" y="275" width="30" height="30" as="geometry"/>
                </mxCell>
                <mxCell id="FVfacnCL5ie-cgliIS16-34" value="F" style="text;html=1;align=center;verticalAlign=middle;resizable=0;points=[];autosize=1;strokeColor=none;fillColor=none;fontSize=20;" vertex="1" parent="FVfacnCL5ie-cgliIS16-1">
                    <mxGeometry x="1320" y="205" width="30" height="30" as="geometry"/>
                </mxCell>
                <mxCell id="FVfacnCL5ie-cgliIS16-36" style="edgeStyle=none;html=1;entryX=0.5;entryY=0;entryDx=0;entryDy=0;fontSize=20;" edge="1" source="FVfacnCL5ie-cgliIS16-38" parent="FVfacnCL5ie-cgliIS16-1" target="FVfacnCL5ie-cgliIS16-42">
                    <mxGeometry relative="1" as="geometry">
                        <mxPoint x="1200" y="560" as="targetPoint"/>
                    </mxGeometry>
                </mxCell>
                <mxCell id="FVfacnCL5ie-cgliIS16-37" style="edgeStyle=none;html=1;fontSize=20;entryX=0;entryY=0.5;entryDx=0;entryDy=0;" edge="1" source="FVfacnCL5ie-cgliIS16-38" parent="FVfacnCL5ie-cgliIS16-1" target="FVfacnCL5ie-cgliIS16-46">
                    <mxGeometry relative="1" as="geometry">
                        <mxPoint x="1380" y="470" as="targetPoint"/>
                    </mxGeometry>
                </mxCell>
                <mxCell id="FVfacnCL5ie-cgliIS16-38" value="(sym)='a' ?" style="rhombus;whiteSpace=wrap;html=1;fontSize=20;" vertex="1" parent="FVfacnCL5ie-cgliIS16-1">
                    <mxGeometry x="1115" y="430" width="170" height="80" as="geometry"/>
                </mxCell>
                <mxCell id="FVfacnCL5ie-cgliIS16-39" value="T" style="text;html=1;align=center;verticalAlign=middle;resizable=0;points=[];autosize=1;strokeColor=none;fillColor=none;fontSize=20;" vertex="1" parent="FVfacnCL5ie-cgliIS16-1">
                    <mxGeometry x="1205" y="515" width="30" height="30" as="geometry"/>
                </mxCell>
                <mxCell id="FVfacnCL5ie-cgliIS16-40" value="F" style="text;html=1;align=center;verticalAlign=middle;resizable=0;points=[];autosize=1;strokeColor=none;fillColor=none;fontSize=20;" vertex="1" parent="FVfacnCL5ie-cgliIS16-1">
                    <mxGeometry x="1320" y="440" width="30" height="30" as="geometry"/>
                </mxCell>
                <mxCell id="FVfacnCL5ie-cgliIS16-44" style="edgeStyle=none;html=1;exitX=0.5;exitY=1;exitDx=0;exitDy=0;fontSize=20;" edge="1" parent="FVfacnCL5ie-cgliIS16-1" source="FVfacnCL5ie-cgliIS16-42">
                    <mxGeometry relative="1" as="geometry">
                        <mxPoint x="1200" y="300" as="targetPoint"/>
                        <Array as="points">
                            <mxPoint x="1200" y="670"/>
                            <mxPoint x="1020" y="670"/>
                            <mxPoint x="1020" y="360"/>
                            <mxPoint x="1020" y="300"/>
                        </Array>
                    </mxGeometry>
                </mxCell>
                <mxCell id="FVfacnCL5ie-cgliIS16-42" value="B" style="whiteSpace=wrap;html=1;fontSize=20;" vertex="1" parent="FVfacnCL5ie-cgliIS16-1">
                    <mxGeometry x="1165" y="565" width="75" height="40" as="geometry"/>
                </mxCell>
                <mxCell id="FVfacnCL5ie-cgliIS16-46" value="" style="ellipse;html=1;shape=endState;fillColor=#000000;strokeColor=#000000;fontSize=20;" vertex="1" parent="FVfacnCL5ie-cgliIS16-1">
                    <mxGeometry x="1410" y="455" width="30" height="30" as="geometry"/>
                </mxCell>
                <mxCell id="FVfacnCL5ie-cgliIS16-47" value="出口" style="text;html=1;align=center;verticalAlign=middle;resizable=0;points=[];autosize=1;strokeColor=none;fillColor=none;fontSize=20;" vertex="1" parent="FVfacnCL5ie-cgliIS16-1">
                    <mxGeometry x="1440" y="455" width="60" height="30" as="geometry"/>
                </mxCell>
                <mxCell id="FVfacnCL5ie-cgliIS16-48" value="error" style="whiteSpace=wrap;html=1;fontSize=20;" vertex="1" parent="FVfacnCL5ie-cgliIS16-1">
                    <mxGeometry x="1400" y="215" width="80" height="40" as="geometry"/>
                </mxCell>
                <mxCell id="FVfacnCL5ie-cgliIS16-49" value="分析Z" style="text;html=1;align=center;verticalAlign=middle;resizable=0;points=[];autosize=1;strokeColor=none;fillColor=none;fontSize=30;" vertex="1" parent="FVfacnCL5ie-cgliIS16-1">
                    <mxGeometry x="1870" y="50" width="90" height="40" as="geometry"/>
                </mxCell>
                <mxCell id="FVfacnCL5ie-cgliIS16-58" style="edgeStyle=none;html=1;entryX=0.5;entryY=0;entryDx=0;entryDy=0;fontSize=30;" edge="1" parent="FVfacnCL5ie-cgliIS16-1" source="FVfacnCL5ie-cgliIS16-50" target="FVfacnCL5ie-cgliIS16-55">
                    <mxGeometry relative="1" as="geometry"/>
                </mxCell>
                <mxCell id="FVfacnCL5ie-cgliIS16-50" value="" style="ellipse;fillColor=#000000;strokeColor=none;fontSize=30;direction=south;" vertex="1" parent="FVfacnCL5ie-cgliIS16-1">
                    <mxGeometry x="2330" y="165" width="30" height="30" as="geometry"/>
                </mxCell>
                <mxCell id="FVfacnCL5ie-cgliIS16-51" value="" style="endArrow=open;startArrow=none;endFill=0;startFill=0;endSize=8;html=1;verticalAlign=bottom;labelBackgroundColor=none;strokeWidth=1;fontSize=30;entryX=0;entryY=0.5;entryDx=0;entryDy=0;" edge="1" target="FVfacnCL5ie-cgliIS16-50" parent="FVfacnCL5ie-cgliIS16-1">
                    <mxGeometry width="160" relative="1" as="geometry">
                        <mxPoint x="2345" y="135" as="sourcePoint"/>
                        <mxPoint x="2220" y="305" as="targetPoint"/>
                    </mxGeometry>
                </mxCell>
                <mxCell id="FVfacnCL5ie-cgliIS16-52" value="入口" style="text;html=1;align=center;verticalAlign=middle;resizable=0;points=[];autosize=1;strokeColor=none;fillColor=none;fontSize=20;" vertex="1" parent="FVfacnCL5ie-cgliIS16-1">
                    <mxGeometry x="2360" y="165" width="60" height="30" as="geometry"/>
                </mxCell>
                <mxCell id="FVfacnCL5ie-cgliIS16-54" style="edgeStyle=none;html=1;fontSize=20;entryX=0;entryY=0.5;entryDx=0;entryDy=0;" edge="1" source="FVfacnCL5ie-cgliIS16-55" parent="FVfacnCL5ie-cgliIS16-1" target="FVfacnCL5ie-cgliIS16-66">
                    <mxGeometry relative="1" as="geometry">
                        <mxPoint x="2525" y="285" as="targetPoint"/>
                    </mxGeometry>
                </mxCell>
                <mxCell id="FVfacnCL5ie-cgliIS16-79" style="edgeStyle=none;html=1;entryX=0.5;entryY=0;entryDx=0;entryDy=0;fontSize=30;" edge="1" parent="FVfacnCL5ie-cgliIS16-1" source="FVfacnCL5ie-cgliIS16-55" target="FVfacnCL5ie-cgliIS16-76">
                    <mxGeometry relative="1" as="geometry"/>
                </mxCell>
                <mxCell id="FVfacnCL5ie-cgliIS16-55" value="(sym)='c' ?" style="rhombus;whiteSpace=wrap;html=1;fontSize=20;" vertex="1" parent="FVfacnCL5ie-cgliIS16-1">
                    <mxGeometry x="2260" y="245" width="170" height="80" as="geometry"/>
                </mxCell>
                <mxCell id="FVfacnCL5ie-cgliIS16-57" value="F" style="text;html=1;align=center;verticalAlign=middle;resizable=0;points=[];autosize=1;strokeColor=none;fillColor=none;fontSize=20;" vertex="1" parent="FVfacnCL5ie-cgliIS16-1">
                    <mxGeometry x="2465" y="255" width="30" height="30" as="geometry"/>
                </mxCell>
                <mxCell id="FVfacnCL5ie-cgliIS16-64" style="edgeStyle=none;html=1;entryX=0.5;entryY=0;entryDx=0;entryDy=0;fontSize=20;" edge="1" source="FVfacnCL5ie-cgliIS16-66" parent="FVfacnCL5ie-cgliIS16-1" target="FVfacnCL5ie-cgliIS16-109">
                    <mxGeometry relative="1" as="geometry">
                        <mxPoint x="2605" y="375" as="targetPoint"/>
                    </mxGeometry>
                </mxCell>
                <mxCell id="FVfacnCL5ie-cgliIS16-65" style="edgeStyle=none;html=1;fontSize=20;entryX=0;entryY=0.5;entryDx=0;entryDy=0;" edge="1" source="FVfacnCL5ie-cgliIS16-66" parent="FVfacnCL5ie-cgliIS16-1" target="FVfacnCL5ie-cgliIS16-69">
                    <mxGeometry relative="1" as="geometry">
                        <mxPoint x="2785" y="285" as="targetPoint"/>
                    </mxGeometry>
                </mxCell>
                <mxCell id="FVfacnCL5ie-cgliIS16-66" value="(sym)='a' ?" style="rhombus;whiteSpace=wrap;html=1;fontSize=20;" vertex="1" parent="FVfacnCL5ie-cgliIS16-1">
                    <mxGeometry x="2515" y="245" width="170" height="85" as="geometry"/>
                </mxCell>
                <mxCell id="FVfacnCL5ie-cgliIS16-67" value="T" style="text;html=1;align=center;verticalAlign=middle;resizable=0;points=[];autosize=1;strokeColor=none;fillColor=none;fontSize=20;" vertex="1" parent="FVfacnCL5ie-cgliIS16-1">
                    <mxGeometry x="2600" y="330" width="30" height="30" as="geometry"/>
                </mxCell>
                <mxCell id="FVfacnCL5ie-cgliIS16-68" value="F" style="text;html=1;align=center;verticalAlign=middle;resizable=0;points=[];autosize=1;strokeColor=none;fillColor=none;fontSize=20;" vertex="1" parent="FVfacnCL5ie-cgliIS16-1">
                    <mxGeometry x="2700" y="255" width="30" height="30" as="geometry"/>
                </mxCell>
                <mxCell id="FVfacnCL5ie-cgliIS16-69" value="error" style="whiteSpace=wrap;html=1;fontSize=20;" vertex="1" parent="FVfacnCL5ie-cgliIS16-1">
                    <mxGeometry x="2770" y="265" width="80" height="40" as="geometry"/>
                </mxCell>
                <mxCell id="FVfacnCL5ie-cgliIS16-75" style="edgeStyle=none;html=1;exitX=1;exitY=0.25;exitDx=0;exitDy=0;fontSize=20;" edge="1" source="FVfacnCL5ie-cgliIS16-76" parent="FVfacnCL5ie-cgliIS16-1">
                    <mxGeometry relative="1" as="geometry">
                        <mxPoint x="2450" y="405" as="targetPoint"/>
                    </mxGeometry>
                </mxCell>
                <mxCell id="FVfacnCL5ie-cgliIS16-86" style="edgeStyle=none;html=1;entryX=0.5;entryY=0;entryDx=0;entryDy=0;fontSize=20;" edge="1" parent="FVfacnCL5ie-cgliIS16-1" source="FVfacnCL5ie-cgliIS16-76" target="FVfacnCL5ie-cgliIS16-89">
                    <mxGeometry relative="1" as="geometry">
                        <mxPoint x="2345" y="505" as="targetPoint"/>
                    </mxGeometry>
                </mxCell>
                <mxCell id="FVfacnCL5ie-cgliIS16-76" value="读符号" style="whiteSpace=wrap;html=1;rounded=0;fontSize=20;" vertex="1" parent="FVfacnCL5ie-cgliIS16-1">
                    <mxGeometry x="2280" y="390" width="120" height="60" as="geometry"/>
                </mxCell>
                <mxCell id="FVfacnCL5ie-cgliIS16-77" value="" style="endArrow=classic;html=1;fontSize=20;entryX=1;entryY=0.75;entryDx=0;entryDy=0;" edge="1" target="FVfacnCL5ie-cgliIS16-76" parent="FVfacnCL5ie-cgliIS16-1">
                    <mxGeometry width="50" height="50" relative="1" as="geometry">
                        <mxPoint x="2450" y="435" as="sourcePoint"/>
                        <mxPoint x="2510" y="420" as="targetPoint"/>
                    </mxGeometry>
                </mxCell>
                <mxCell id="FVfacnCL5ie-cgliIS16-80" value="T" style="text;html=1;align=center;verticalAlign=middle;resizable=0;points=[];autosize=1;strokeColor=none;fillColor=none;fontSize=20;" vertex="1" parent="FVfacnCL5ie-cgliIS16-1">
                    <mxGeometry x="2300" y="340" width="30" height="30" as="geometry"/>
                </mxCell>
                <mxCell id="FVfacnCL5ie-cgliIS16-87" style="edgeStyle=none;html=1;entryX=0.5;entryY=0;entryDx=0;entryDy=0;fontSize=20;" edge="1" parent="FVfacnCL5ie-cgliIS16-1" source="FVfacnCL5ie-cgliIS16-89" target="FVfacnCL5ie-cgliIS16-102">
                    <mxGeometry relative="1" as="geometry">
                        <mxPoint x="2335" y="635" as="targetPoint"/>
                    </mxGeometry>
                </mxCell>
                <mxCell id="FVfacnCL5ie-cgliIS16-88" style="edgeStyle=none;html=1;fontSize=20;exitX=0;exitY=0.5;exitDx=0;exitDy=0;entryX=1;entryY=0.5;entryDx=0;entryDy=0;" edge="1" parent="FVfacnCL5ie-cgliIS16-1" source="FVfacnCL5ie-cgliIS16-89" target="FVfacnCL5ie-cgliIS16-97">
                    <mxGeometry relative="1" as="geometry">
                        <mxPoint x="2170" y="545" as="targetPoint"/>
                        <mxPoint x="2400" y="650" as="sourcePoint"/>
                    </mxGeometry>
                </mxCell>
                <mxCell id="FVfacnCL5ie-cgliIS16-89" value="(sym)='a' ?" style="rhombus;whiteSpace=wrap;html=1;fontSize=20;" vertex="1" parent="FVfacnCL5ie-cgliIS16-1">
                    <mxGeometry x="2250" y="505" width="170" height="80" as="geometry"/>
                </mxCell>
                <mxCell id="FVfacnCL5ie-cgliIS16-90" value="T" style="text;html=1;align=center;verticalAlign=middle;resizable=0;points=[];autosize=1;strokeColor=none;fillColor=none;fontSize=20;" vertex="1" parent="FVfacnCL5ie-cgliIS16-1">
                    <mxGeometry x="2340" y="590" width="30" height="30" as="geometry"/>
                </mxCell>
                <mxCell id="FVfacnCL5ie-cgliIS16-91" value="F" style="text;html=1;align=center;verticalAlign=middle;resizable=0;points=[];autosize=1;strokeColor=none;fillColor=none;fontSize=20;" vertex="1" parent="FVfacnCL5ie-cgliIS16-1">
                    <mxGeometry x="2210" y="520" width="30" height="30" as="geometry"/>
                </mxCell>
                <mxCell id="FVfacnCL5ie-cgliIS16-95" style="edgeStyle=none;html=1;fontSize=20;entryX=0.5;entryY=0;entryDx=0;entryDy=0;" edge="1" parent="FVfacnCL5ie-cgliIS16-1" source="FVfacnCL5ie-cgliIS16-97" target="FVfacnCL5ie-cgliIS16-112">
                    <mxGeometry relative="1" as="geometry">
                        <mxPoint x="2085" y="650" as="targetPoint"/>
                    </mxGeometry>
                </mxCell>
                <mxCell id="FVfacnCL5ie-cgliIS16-96" style="edgeStyle=none;html=1;fontSize=20;exitX=0;exitY=0.5;exitDx=0;exitDy=0;" edge="1" parent="FVfacnCL5ie-cgliIS16-1" source="FVfacnCL5ie-cgliIS16-97">
                    <mxGeometry relative="1" as="geometry">
                        <mxPoint x="2750" y="280" as="targetPoint"/>
                        <mxPoint x="2150" y="650" as="sourcePoint"/>
                        <Array as="points">
                            <mxPoint x="1940" y="545"/>
                            <mxPoint x="1940" y="110"/>
                            <mxPoint x="2750" y="110"/>
                        </Array>
                    </mxGeometry>
                </mxCell>
                <mxCell id="FVfacnCL5ie-cgliIS16-97" value="(sym)='c' ?" style="rhombus;whiteSpace=wrap;html=1;fontSize=20;" vertex="1" parent="FVfacnCL5ie-cgliIS16-1">
                    <mxGeometry x="2000" y="505" width="170" height="80" as="geometry"/>
                </mxCell>
                <mxCell id="FVfacnCL5ie-cgliIS16-98" value="T" style="text;html=1;align=center;verticalAlign=middle;resizable=0;points=[];autosize=1;strokeColor=none;fillColor=none;fontSize=20;" vertex="1" parent="FVfacnCL5ie-cgliIS16-1">
                    <mxGeometry x="2223" y="585" width="30" height="30" as="geometry"/>
                </mxCell>
                <mxCell id="FVfacnCL5ie-cgliIS16-99" value="F" style="text;html=1;align=center;verticalAlign=middle;resizable=0;points=[];autosize=1;strokeColor=none;fillColor=none;fontSize=20;" vertex="1" parent="FVfacnCL5ie-cgliIS16-1">
                    <mxGeometry x="1970" y="515" width="30" height="30" as="geometry"/>
                </mxCell>
                <mxCell id="FVfacnCL5ie-cgliIS16-116" style="edgeStyle=none;html=1;fontSize=20;entryX=0;entryY=0.5;entryDx=0;entryDy=0;" edge="1" parent="FVfacnCL5ie-cgliIS16-1" source="FVfacnCL5ie-cgliIS16-101" target="FVfacnCL5ie-cgliIS16-115">
                    <mxGeometry relative="1" as="geometry">
                        <mxPoint x="2090" y="1020" as="targetPoint"/>
                        <Array as="points">
                            <mxPoint x="2090" y="990"/>
                        </Array>
                    </mxGeometry>
                </mxCell>
                <mxCell id="FVfacnCL5ie-cgliIS16-101" value="B" style="whiteSpace=wrap;html=1;fontSize=20;" vertex="1" parent="FVfacnCL5ie-cgliIS16-1">
                    <mxGeometry x="2050" y="760" width="80" height="40" as="geometry"/>
                </mxCell>
                <mxCell id="FVfacnCL5ie-cgliIS16-103" style="edgeStyle=none;html=1;fontSize=20;" edge="1" parent="FVfacnCL5ie-cgliIS16-1" source="FVfacnCL5ie-cgliIS16-102">
                    <mxGeometry relative="1" as="geometry">
                        <mxPoint x="2340" y="350" as="targetPoint"/>
                        <Array as="points">
                            <mxPoint x="2335" y="720"/>
                            <mxPoint x="2480" y="720"/>
                            <mxPoint x="2480" y="350"/>
                        </Array>
                    </mxGeometry>
                </mxCell>
                <mxCell id="FVfacnCL5ie-cgliIS16-102" value="B" style="whiteSpace=wrap;html=1;fontSize=20;" vertex="1" parent="FVfacnCL5ie-cgliIS16-1">
                    <mxGeometry x="2290" y="635" width="90" height="40" as="geometry"/>
                </mxCell>
                <mxCell id="FVfacnCL5ie-cgliIS16-108" style="edgeStyle=none;html=1;exitX=1;exitY=0.25;exitDx=0;exitDy=0;fontSize=20;" edge="1" source="FVfacnCL5ie-cgliIS16-109" parent="FVfacnCL5ie-cgliIS16-1">
                    <mxGeometry relative="1" as="geometry">
                        <mxPoint x="2710" y="405" as="targetPoint"/>
                    </mxGeometry>
                </mxCell>
                <mxCell id="FVfacnCL5ie-cgliIS16-118" style="edgeStyle=none;html=1;fontSize=20;entryX=0.5;entryY=0;entryDx=0;entryDy=0;" edge="1" parent="FVfacnCL5ie-cgliIS16-1" source="FVfacnCL5ie-cgliIS16-109" target="FVfacnCL5ie-cgliIS16-122">
                    <mxGeometry relative="1" as="geometry">
                        <mxPoint x="2600" y="500" as="targetPoint"/>
                    </mxGeometry>
                </mxCell>
                <mxCell id="FVfacnCL5ie-cgliIS16-109" value="读符号" style="whiteSpace=wrap;html=1;rounded=0;fontSize=20;" vertex="1" parent="FVfacnCL5ie-cgliIS16-1">
                    <mxGeometry x="2540" y="390" width="120" height="60" as="geometry"/>
                </mxCell>
                <mxCell id="FVfacnCL5ie-cgliIS16-110" value="" style="endArrow=classic;html=1;fontSize=20;entryX=1;entryY=0.75;entryDx=0;entryDy=0;" edge="1" target="FVfacnCL5ie-cgliIS16-109" parent="FVfacnCL5ie-cgliIS16-1">
                    <mxGeometry width="50" height="50" relative="1" as="geometry">
                        <mxPoint x="2710" y="435" as="sourcePoint"/>
                        <mxPoint x="2770" y="420" as="targetPoint"/>
                    </mxGeometry>
                </mxCell>
                <mxCell id="FVfacnCL5ie-cgliIS16-111" style="edgeStyle=none;html=1;exitX=1;exitY=0.25;exitDx=0;exitDy=0;fontSize=20;" edge="1" source="FVfacnCL5ie-cgliIS16-112" parent="FVfacnCL5ie-cgliIS16-1">
                    <mxGeometry relative="1" as="geometry">
                        <mxPoint x="2200" y="675" as="targetPoint"/>
                    </mxGeometry>
                </mxCell>
                <mxCell id="FVfacnCL5ie-cgliIS16-114" style="edgeStyle=none;html=1;entryX=0.5;entryY=0;entryDx=0;entryDy=0;fontSize=20;" edge="1" parent="FVfacnCL5ie-cgliIS16-1" source="FVfacnCL5ie-cgliIS16-112" target="FVfacnCL5ie-cgliIS16-101">
                    <mxGeometry relative="1" as="geometry"/>
                </mxCell>
                <mxCell id="FVfacnCL5ie-cgliIS16-112" value="读符号" style="whiteSpace=wrap;html=1;rounded=0;fontSize=20;" vertex="1" parent="FVfacnCL5ie-cgliIS16-1">
                    <mxGeometry x="2030" y="660" width="120" height="65" as="geometry"/>
                </mxCell>
                <mxCell id="FVfacnCL5ie-cgliIS16-113" value="" style="endArrow=classic;html=1;fontSize=20;entryX=1;entryY=0.75;entryDx=0;entryDy=0;" edge="1" target="FVfacnCL5ie-cgliIS16-112" parent="FVfacnCL5ie-cgliIS16-1">
                    <mxGeometry width="50" height="50" relative="1" as="geometry">
                        <mxPoint x="2200" y="710" as="sourcePoint"/>
                        <mxPoint x="2260" y="690" as="targetPoint"/>
                    </mxGeometry>
                </mxCell>
                <mxCell id="FVfacnCL5ie-cgliIS16-115" value="" style="ellipse;html=1;shape=endState;fillColor=#000000;strokeColor=#000000;fontSize=20;" vertex="1" parent="FVfacnCL5ie-cgliIS16-1">
                    <mxGeometry x="2470" y="970" width="30" height="30" as="geometry"/>
                </mxCell>
                <mxCell id="FVfacnCL5ie-cgliIS16-117" value="出口" style="text;html=1;align=center;verticalAlign=middle;resizable=0;points=[];autosize=1;strokeColor=none;fillColor=none;fontSize=20;" vertex="1" parent="FVfacnCL5ie-cgliIS16-1">
                    <mxGeometry x="2455" y="1000" width="60" height="30" as="geometry"/>
                </mxCell>
                <mxCell id="FVfacnCL5ie-cgliIS16-120" style="edgeStyle=none;html=1;fontSize=20;entryX=0.5;entryY=0;entryDx=0;entryDy=0;" edge="1" source="FVfacnCL5ie-cgliIS16-122" parent="FVfacnCL5ie-cgliIS16-1" target="FVfacnCL5ie-cgliIS16-115">
                    <mxGeometry relative="1" as="geometry">
                        <mxPoint x="2590" y="990" as="targetPoint"/>
                    </mxGeometry>
                </mxCell>
                <mxCell id="FVfacnCL5ie-cgliIS16-121" style="edgeStyle=none;html=1;fontSize=20;entryX=0;entryY=0.5;entryDx=0;entryDy=0;entryPerimeter=0;" edge="1" source="FVfacnCL5ie-cgliIS16-122" parent="FVfacnCL5ie-cgliIS16-1" target="FVfacnCL5ie-cgliIS16-125">
                    <mxGeometry relative="1" as="geometry">
                        <mxPoint x="2780" y="545" as="targetPoint"/>
                    </mxGeometry>
                </mxCell>
                <mxCell id="FVfacnCL5ie-cgliIS16-122" value="(sym)='d' ?" style="rhombus;whiteSpace=wrap;html=1;fontSize=20;" vertex="1" parent="FVfacnCL5ie-cgliIS16-1">
                    <mxGeometry x="2515" y="505" width="170" height="80" as="geometry"/>
                </mxCell>
                <mxCell id="FVfacnCL5ie-cgliIS16-123" value="T" style="text;html=1;align=center;verticalAlign=middle;resizable=0;points=[];autosize=1;strokeColor=none;fillColor=none;fontSize=20;" vertex="1" parent="FVfacnCL5ie-cgliIS16-1">
                    <mxGeometry x="2605" y="590" width="30" height="30" as="geometry"/>
                </mxCell>
                <mxCell id="FVfacnCL5ie-cgliIS16-124" value="F" style="text;html=1;align=center;verticalAlign=middle;resizable=0;points=[];autosize=1;strokeColor=none;fillColor=none;fontSize=20;" vertex="1" parent="FVfacnCL5ie-cgliIS16-1">
                    <mxGeometry x="2720" y="515" width="30" height="30" as="geometry"/>
                </mxCell>
                <mxCell id="FVfacnCL5ie-cgliIS16-127" style="edgeStyle=none;html=1;fontSize=20;entryX=0.5;entryY=0;entryDx=0;entryDy=0;" edge="1" parent="FVfacnCL5ie-cgliIS16-1" source="FVfacnCL5ie-cgliIS16-125" target="FVfacnCL5ie-cgliIS16-132">
                    <mxGeometry relative="1" as="geometry">
                        <mxPoint x="2850" y="630" as="targetPoint"/>
                    </mxGeometry>
                </mxCell>
                <mxCell id="FVfacnCL5ie-cgliIS16-125" value="A" style="whiteSpace=wrap;html=1;fontSize=20;" vertex="1" parent="FVfacnCL5ie-cgliIS16-1">
                    <mxGeometry x="2790" y="515" width="120" height="60" as="geometry"/>
                </mxCell>
                <mxCell id="FVfacnCL5ie-cgliIS16-130" style="edgeStyle=none;html=1;fontSize=20;entryX=1;entryY=0.5;entryDx=0;entryDy=0;" edge="1" source="FVfacnCL5ie-cgliIS16-132" parent="FVfacnCL5ie-cgliIS16-1" target="FVfacnCL5ie-cgliIS16-115">
                    <mxGeometry relative="1" as="geometry">
                        <mxPoint x="2810" y="1010" as="targetPoint"/>
                        <Array as="points">
                            <mxPoint x="2845" y="990"/>
                        </Array>
                    </mxGeometry>
                </mxCell>
                <mxCell id="FVfacnCL5ie-cgliIS16-131" style="edgeStyle=none;html=1;fontSize=20;" edge="1" source="FVfacnCL5ie-cgliIS16-132" parent="FVfacnCL5ie-cgliIS16-1">
                    <mxGeometry relative="1" as="geometry">
                        <mxPoint x="2740" y="290" as="targetPoint"/>
                        <Array as="points">
                            <mxPoint x="3150" y="680"/>
                            <mxPoint x="3150" y="350"/>
                            <mxPoint x="2740" y="350"/>
                        </Array>
                    </mxGeometry>
                </mxCell>
                <mxCell id="FVfacnCL5ie-cgliIS16-132" value="(sym)='a' ?" style="rhombus;whiteSpace=wrap;html=1;fontSize=20;" vertex="1" parent="FVfacnCL5ie-cgliIS16-1">
                    <mxGeometry x="2760" y="640" width="170" height="80" as="geometry"/>
                </mxCell>
                <mxCell id="FVfacnCL5ie-cgliIS16-133" value="T" style="text;html=1;align=center;verticalAlign=middle;resizable=0;points=[];autosize=1;strokeColor=none;fillColor=none;fontSize=20;" vertex="1" parent="FVfacnCL5ie-cgliIS16-1">
                    <mxGeometry x="2850" y="725" width="30" height="30" as="geometry"/>
                </mxCell>
                <mxCell id="FVfacnCL5ie-cgliIS16-134" value="F" style="text;html=1;align=center;verticalAlign=middle;resizable=0;points=[];autosize=1;strokeColor=none;fillColor=none;fontSize=20;" vertex="1" parent="FVfacnCL5ie-cgliIS16-1">
                    <mxGeometry x="2965" y="650" width="30" height="30" as="geometry"/>
                </mxCell>
            </root>
        </mxGraphModel>
    </diagram>
</mxfile>